<?xml version="1.0" encoding="UTF-8" standalone="no"?>
<!DOCTYPE svg PUBLIC "-//W3C//DTD SVG 1.1//EN" "http://www.w3.org/Graphics/SVG/1.1/DTD/svg11.dtd">
<!-- Generated by Microsoft Visio, SVG Export BOWTIE.svg Page-1 -->
<svg xmlns="http://www.w3.org/2000/svg" xmlns:xlink="http://www.w3.org/1999/xlink" xmlns:ev="http://www.w3.org/2001/xml-events"
		xmlns:v="http://schemas.microsoft.com/visio/2003/SVGExtensions/" width="8.5in" height="11in" viewBox="0 0 612 792"
		xml:space="preserve" color-interpolation-filters="sRGB" class="st13">
	<v:documentProperties v:langID="1033" v:viewMarkup="false">
		<v:userDefs>
			<v:ud v:nameU="msvNoAutoConnect" v:val="VT0(1):26"/>
		</v:userDefs>
	</v:documentProperties>

	<style type="text/css">
	<![CDATA[
		.st1 {stroke:#000000;stroke-linecap:round;stroke-linejoin:round;stroke-width:0.75}
		.st2 {fill:#ffffff;stroke:#000000;stroke-linecap:round;stroke-linejoin:round;stroke-width:0.24}
		.st3 {fill:#000000;font-family:Times New Roman;font-size:0.833336em;font-weight:bold}
		.st4 {fill:#000000;font-family:Times New Roman;font-size:0.833336em}
		.st5 {font-size:1em}
		.st6 {marker-end:url(#mrkr5-46);stroke:#000000;stroke-linecap:round;stroke-linejoin:round;stroke-width:0.75}
		.st7 {fill:#000000;fill-opacity:1;stroke:#000000;stroke-opacity:1;stroke-width:0.22935779816514}
		.st8 {fill:#000000;font-family:Times New Roman;font-size:0.791656em}
		.st9 {fill:#ffffff;stroke:none;stroke-linecap:round;stroke-linejoin:round;stroke-width:0.24}
		.st10 {fill:none;stroke:#000000;stroke-dasharray:7,5;stroke-linecap:round;stroke-linejoin:round;stroke-width:1}
		.st11 {fill:none;stroke:none;stroke-linecap:round;stroke-linejoin:round;stroke-width:0.75}
		.st12 {fill:#000000;font-family:Times New Roman;font-size:1.00001em;font-style:italic;font-weight:bold}
		.st13 {fill:none;fill-rule:evenodd;font-size:12px;overflow:visible;stroke-linecap:square;stroke-miterlimit:3}
	]]>
	</style>

	<defs id="Markers">
		<g id="lend5">
			<path d="M 2 1 L 0 0 L 1.98117 -0.993387 C 1.67173 -0.364515 1.67301 0.372641 1.98465 1.00043 " style="stroke:none"/>
		</g>
		<marker id="mrkr5-46" class="st7" v:arrowType="5" v:arrowSize="2" v:setback="7.63" refX="-7.63" orient="auto"
				markerUnits="strokeWidth" overflow="visible">
			<use xlink:href="#lend5" transform="scale(-4.36,-4.36) "/>
		</marker>
	</defs>
	<g v:mID="0" v:index="1" v:groupContext="foregroundPage">
		<title>Page-1</title>
		<v:pageProperties v:drawingScale="1" v:pageScale="1" v:drawingUnits="19" v:shadowOffsetX="9" v:shadowOffsetY="-9"/>
		<v:layer v:name="Flowchart" v:index="0"/>
		<v:layer v:name="Connector" v:index="1"/>
		<g id="shape16-1" v:mID="16" v:groupContext="shape" v:layerMember="1" transform="translate(396.75,-315)">
			<title>Dynamic connector.16</title>
			<path d="M0 792 L0 745.31 L-105.37 745.31" class="st1"/>
		</g>
		<g id="shape1-4" v:mID="1" v:groupContext="shape" v:layerMember="0" transform="translate(-377.25,585) rotate(-90)">
			<title>And gate</title>
			<desc>AND</desc>
			<v:custProps>
				<v:cp v:nameU="Cost" v:lbl="Cost" v:type="7" v:format="@" v:langID="1033"/>
				<v:cp v:nameU="Duration" v:lbl="Duration" v:type="2" v:langID="1033"/>
				<v:cp v:nameU="Resources" v:lbl="Resources" v:langID="1033"/>
			</v:custProps>
			<v:userDefs>
				<v:ud v:nameU="visVersion" v:val="VT0(15):26"/>
			</v:userDefs>
			<v:textBlock v:margins="rect(2,2,2,2)"/>
			<v:textRect cx="22.5" cy="774" width="45" height="36"/>
			<path d="M0 756 L0 792 L27 792 A18 18 -180 0 0 27 756 L0 756 Z" class="st2"/>
			<text x="11.67" y="777" class="st3" v:langID="1033"><v:paragraph v:horizAlign="1"/><v:tabList/>AND</text>		</g>
		<g id="shape2-7" v:mID="2" v:groupContext="shape" v:layerMember="0" transform="translate(-639.75,585) rotate(-90)">
			<title>Or gate</title>
			<desc>OR</desc>
			<v:custProps>
				<v:cp v:nameU="Cost" v:lbl="Cost" v:type="7" v:format="@" v:langID="1033"/>
				<v:cp v:nameU="Duration" v:lbl="Duration" v:type="2" v:langID="1033"/>
				<v:cp v:nameU="Resources" v:lbl="Resources" v:langID="1033"/>
			</v:custProps>
			<v:userDefs>
				<v:ud v:nameU="visVersion" v:val="VT0(15):26"/>
			</v:userDefs>
			<v:textBlock v:margins="rect(2,2,2,2)"/>
			<v:textRect cx="22.5" cy="774" width="45" height="36"/>
			<path d="M19.5 756 A36.9908 36.9908 0 0 1 45 774 A34.3613 34.3613 0 0 1 19.5 792 L0 792 A45.075 45.075 -180 0 0 0 756
						 L19.5 756 Z" class="st2"/>
			<text x="15" y="777" class="st3" v:langID="1033"><v:paragraph v:horizAlign="1"/><v:tabList/>OR</text>		</g>
		<g id="shape3-10" v:mID="3" v:groupContext="shape" transform="translate(62.25,-45)">
			<title>Circle</title>
			<desc>Flange / Gasket Failure</desc>
			<v:userDefs>
				<v:ud v:nameU="visVersion" v:val="VT0(15):26"/>
			</v:userDefs>
			<v:textBlock v:margins="rect(4,4,4,4)"/>
			<v:textRect cx="27" cy="765" width="47.26" height="40.5"/>
			<path d="M0 765 A27 27 0 0 1 54 765 A27 27 0 1 1 0 765 Z" class="st2"/>
			<text x="10.75" y="756" class="st4" v:langID="1033"><v:paragraph v:horizAlign="1"/><v:tabList/>Flange / <tspan
						x="13.12" dy="1.2em" class="st5">Gasket </tspan><tspan x="12.84" dy="1.2em" class="st5">Failure</tspan></text>		</g>
		<g id="shape4-15" v:mID="4" v:groupContext="shape" transform="translate(152.25,-45)">
			<title>Circle.4</title>
			<desc>Corroded Vessel Lining</desc>
			<v:userDefs>
				<v:ud v:nameU="visVersion" v:val="VT0(15):26"/>
			</v:userDefs>
			<v:textBlock v:margins="rect(4,4,4,4)"/>
			<v:textRect cx="27" cy="765" width="47.26" height="40.5"/>
			<path d="M0 765 A27 27 0 0 1 54 765 A27 27 0 1 1 0 765 Z" class="st2"/>
			<text x="8.12" y="756" class="st4" v:langID="1033"><v:paragraph v:horizAlign="1"/><v:tabList/>Corroded <tspan x="13.67"
						dy="1.2em" class="st5">Vessel </tspan><tspan x="13.67" dy="1.2em" class="st5">Lining </tspan> </text>		</g>
		<g id="shape5-20" v:mID="5" v:groupContext="shape" v:layerMember="1" transform="translate(89.25,-99)">
			<title>Dynamic connector</title>
			<path d="M0 792 L0 697.5 L36 697.5 L36 681.19" class="st1"/>
		</g>
		<g id="shape6-23" v:mID="6" v:groupContext="shape" v:layerMember="1" transform="translate(179.25,-99)">
			<title>Dynamic connector.6</title>
			<path d="M0 792 L0 697.5 L-36 697.5 L-36 681.19" class="st1"/>
		</g>
		<g id="shape7-26" v:mID="7" v:groupContext="shape" transform="translate(91.5,-279)">
			<title>Rectangle</title>
			<desc>Mechanical Failure</desc>
			<v:userDefs>
				<v:ud v:nameU="visVersion" v:val="VT0(15):26"/>
			</v:userDefs>
			<v:textBlock v:margins="rect(4,4,4,4)"/>
			<v:textRect cx="42.75" cy="774" width="85.5" height="36"/>
			<rect x="0" y="756" width="85.5" height="36" class="st2"/>
			<text x="4.02" y="777" class="st4" v:langID="1033"><v:paragraph v:horizAlign="1"/><v:tabList/>Mechanical Failure  </text>		</g>
		<g id="shape8-29" v:mID="8" v:groupContext="shape" v:layerMember="0" transform="translate(-500.625,450) rotate(-90)">
			<title>Or gate.8</title>
			<desc>OR</desc>
			<v:custProps>
				<v:cp v:nameU="Cost" v:lbl="Cost" v:type="7" v:format="@" v:langID="1033"/>
				<v:cp v:nameU="Duration" v:lbl="Duration" v:type="2" v:langID="1033"/>
				<v:cp v:nameU="Resources" v:lbl="Resources" v:langID="1033"/>
			</v:custProps>
			<v:userDefs>
				<v:ud v:nameU="visVersion" v:val="VT0(15):26"/>
			</v:userDefs>
			<v:textBlock v:margins="rect(2,2,2,2)"/>
			<v:textRect cx="22.5" cy="774" width="45" height="36"/>
			<path d="M19.5 756 A36.9908 36.9908 0 0 1 45 774 A34.3613 34.3613 0 0 1 19.5 792 L0 792 A45.075 45.075 -180 0 0 0 756
						 L19.5 756 Z" class="st2"/>
			<text x="15" y="777" class="st3" v:langID="1033"><v:paragraph v:horizAlign="1"/><v:tabList/>OR</text>		</g>
		<g id="shape9-32" v:mID="9" v:groupContext="shape" v:layerMember="1" transform="translate(125.25,-252)">
			<title>Dynamic connector.9</title>
			<path d="M9 792 L9 765" class="st1"/>
		</g>
		<g id="shape10-35" v:mID="10" v:groupContext="shape" v:layerMember="1" transform="translate(134.25,-315)">
			<title>Dynamic connector.10</title>
			<path d="M0 792 L0 745.31 L121.13 745.31" class="st1"/>
		</g>
		<g id="shape11-38" v:mID="11" v:groupContext="shape" transform="translate(193.5,-414)">
			<title>Rectangle.11</title>
			<desc>Uncontrollable HF Vapor Release</desc>
			<v:userDefs>
				<v:ud v:nameU="visVersion" v:val="VT0(15):26"/>
			</v:userDefs>
			<v:textBlock v:margins="rect(4,4,4,4)"/>
			<v:textRect cx="79.875" cy="783" width="159.76" height="18"/>
			<rect x="0" y="774" width="159.75" height="18" class="st2"/>
			<text x="7.52" y="786" class="st3" v:langID="1033"><v:paragraph v:horizAlign="1"/><v:tabList/>Uncontrollable HF Vapor Release</text>		</g>
		<g id="shape12-41" v:mID="12" v:groupContext="shape" v:layerMember="1" transform="translate(264.375,-387)">
			<title>Dynamic connector.12</title>
			<path d="M9 792 L9 770.72" class="st6"/>
		</g>
		<g id="shape13-47" v:mID="13" v:groupContext="shape" transform="translate(354,-279)">
			<title>Rectangle.13</title>
			<desc>Reactor Overpressure</desc>
			<v:userDefs>
				<v:ud v:nameU="visVersion" v:val="VT0(15):26"/>
			</v:userDefs>
			<v:textBlock v:margins="rect(4,4,4,4)"/>
			<v:textRect cx="42.75" cy="774" width="85.5" height="36"/>
			<rect x="0" y="756" width="85.5" height="36" class="st2"/>
			<text x="27.2" y="771" class="st4" v:langID="1033"><v:paragraph v:horizAlign="1"/><v:tabList/>Reactor <tspan x="16.09"
						dy="1.2em" class="st5">Overpressure  </tspan>  </text>		</g>
		<g id="shape17-51" v:mID="17" v:groupContext="shape" transform="translate(243.75,-45)">
			<title>Circle.17</title>
			<desc>Loss of Auxiliary Cooling</desc>
			<v:userDefs>
				<v:ud v:nameU="visVersion" v:val="VT0(15):26"/>
			</v:userDefs>
			<v:textBlock v:margins="rect(4,4,4,4)"/>
			<v:textRect cx="27" cy="765" width="47.26" height="40.5"/>
			<path d="M0 765 A27 27 0 0 1 54 765 A27 27 0 1 1 0 765 Z" class="st2"/>
			<text x="12.14" y="756" class="st4" v:langID="1033"><v:paragraph v:horizAlign="1"/><v:tabList/>Loss of <tspan x="7.84"
						dy="1.2em" class="st5">Auxiliary </tspan><tspan x="10.89" dy="1.2em" class="st5">Cooling</tspan></text>		</g>
		<g id="shape18-56" v:mID="18" v:groupContext="shape" transform="translate(324.75,-45)">
			<title>Circle.18</title>
			<desc>Reactor Outlet Blocked</desc>
			<v:userDefs>
				<v:ud v:nameU="visVersion" v:val="VT0(15):26"/>
			</v:userDefs>
			<v:textBlock v:margins="rect(4,4,4,4)"/>
			<v:textRect cx="27" cy="765" width="47.26" height="40.5"/>
			<path d="M0 765 A27 27 0 0 1 54 765 A27 27 0 1 1 0 765 Z" class="st2"/>
			<text x="11.45" y="756" class="st4" v:langID="1033"><v:paragraph v:horizAlign="1"/><v:tabList/>Reactor <tspan x="14.5"
						dy="1.2em" class="st5">Outlet </tspan><tspan x="10.34" dy="1.2em" class="st5">Blocked </tspan> </text>		</g>
		<g id="shape19-61" v:mID="19" v:groupContext="shape" v:layerMember="0" transform="translate(-462.75,661.5) rotate(-90)">
			<title>Or gate.19</title>
			<desc>OR</desc>
			<v:custProps>
				<v:cp v:nameU="Cost" v:lbl="Cost" v:type="7" v:format="@" v:langID="1033"/>
				<v:cp v:nameU="Duration" v:lbl="Duration" v:type="2" v:langID="1033"/>
				<v:cp v:nameU="Resources" v:lbl="Resources" v:langID="1033"/>
			</v:custProps>
			<v:userDefs>
				<v:ud v:nameU="visVersion" v:val="VT0(15):26"/>
			</v:userDefs>
			<v:textBlock v:margins="rect(2,2,2,2)"/>
			<v:textRect cx="22.5" cy="774" width="45" height="36"/>
			<path d="M19.5 756 A36.9908 36.9908 0 0 1 45 774 A34.3613 34.3613 0 0 1 19.5 792 L0 792 A45.075 45.075 -180 0 0 0 756
						 L19.5 756 Z" class="st2"/>
			<text x="15" y="777" class="st3" v:langID="1033"><v:paragraph v:horizAlign="1"/><v:tabList/>OR</text>		</g>
		<g id="shape20-64" v:mID="20" v:groupContext="shape" v:layerMember="1" transform="translate(270.75,-99)">
			<title>Dynamic connector.20</title>
			<path d="M0 792 L0 778.5 L31.5 778.5 L31.5 757.69" class="st1"/>
		</g>
		<g id="shape21-67" v:mID="21" v:groupContext="shape" v:layerMember="1" transform="translate(351.75,-99)">
			<title>Dynamic connector.21</title>
			<path d="M0 792 L0 778.5 L-31.5 778.5 L-31.5 757.69" class="st1"/>
		</g>
		<g id="shape22-70" v:mID="22" v:groupContext="shape" v:layerMember="1" transform="translate(311.25,-175.5)">
			<title>Dynamic connector.22</title>
			<path d="M0 792 L0 778.5 L76.5 778.5 L76.5 760.5" class="st1"/>
		</g>
		<g id="shape23-73" v:mID="23" v:groupContext="shape" transform="translate(414.75,-45)">
			<title>Circle.23</title>
			<desc>Pressure Safety Valve Fails</desc>
			<v:userDefs>
				<v:ud v:nameU="visVersion" v:val="VT0(15):26"/>
			</v:userDefs>
			<v:textBlock v:margins="rect(4,4,4,4)"/>
			<v:textRect cx="27" cy="765" width="47.26" height="40.5"/>
			<path d="M0 765 A27 27 0 0 1 54 765 A27 27 0 1 1 0 765 Z" class="st2"/>
			<text x="10.91" y="750.75" class="st8" v:langID="1033"><v:paragraph v:horizAlign="1"/><v:tabList/>Pressure <tspan
						x="14.87" dy="1.2em" class="st5">Safety </tspan><tspan x="15.66" dy="1.2em" class="st5">Valve </tspan><tspan
						x="17.76" dy="1.2em" class="st5">Fails</tspan></text>		</g>
		<g id="shape24-79" v:mID="24" v:groupContext="shape" transform="translate(495.75,-45)">
			<title>Circle.24</title>
			<desc>Rupture Disk Fails</desc>
			<v:userDefs>
				<v:ud v:nameU="visVersion" v:val="VT0(15):26"/>
			</v:userDefs>
			<v:textBlock v:margins="rect(4,4,4,4)"/>
			<v:textRect cx="27" cy="765" width="47.26" height="40.5"/>
			<path d="M0 765 A27 27 0 0 1 54 765 A27 27 0 1 1 0 765 Z" class="st2"/>
			<text x="10.89" y="756" class="st4" v:langID="1033"><v:paragraph v:horizAlign="1"/><v:tabList/>Rupture <tspan x="17.55"
						dy="1.2em" class="st5">Disk </tspan><tspan x="17.28" dy="1.2em" class="st5">Fails</tspan></text>		</g>
		<g id="shape25-84" v:mID="25" v:groupContext="shape" v:layerMember="0" transform="translate(-296.25,661.5) rotate(-90)">
			<title>And gate.25</title>
			<desc>AND</desc>
			<v:custProps>
				<v:cp v:nameU="Cost" v:lbl="Cost" v:type="7" v:format="@" v:langID="1033"/>
				<v:cp v:nameU="Duration" v:lbl="Duration" v:type="2" v:langID="1033"/>
				<v:cp v:nameU="Resources" v:lbl="Resources" v:langID="1033"/>
			</v:custProps>
			<v:userDefs>
				<v:ud v:nameU="visVersion" v:val="VT0(15):26"/>
			</v:userDefs>
			<v:textBlock v:margins="rect(2,2,2,2)"/>
			<v:textRect cx="22.5" cy="774" width="45" height="36"/>
			<path d="M0 756 L0 792 L27 792 A18 18 -180 0 0 27 756 L0 756 Z" class="st2"/>
			<text x="11.67" y="777" class="st3" v:langID="1033"><v:paragraph v:horizAlign="1"/><v:tabList/>AND</text>		</g>
		<g id="shape26-87" v:mID="26" v:groupContext="shape" v:layerMember="1" transform="translate(441.75,-99)">
			<title>Dynamic connector.26</title>
			<path d="M0 792 L0 778.5 L27 778.5 L27 760.5" class="st1"/>
		</g>
		<g id="shape27-90" v:mID="27" v:groupContext="shape" v:layerMember="1" transform="translate(522.75,-99)">
			<title>Dynamic connector.27</title>
			<path d="M0 792 L0 778.5 L-36 778.5 L-36 760.5" class="st1"/>
		</g>
		<g id="shape28-93" v:mID="28" v:groupContext="shape" v:layerMember="1" transform="translate(477.75,-175.5)">
			<title>Dynamic connector.28</title>
			<path d="M0 792 L0 778.5 L-72 778.5 L-72 760.5" class="st1"/>
		</g>
		<g id="shape29-96" v:mID="29" v:groupContext="shape" v:layerMember="1" transform="translate(387.75,-252)">
			<title>Dynamic connector.29</title>
			<path d="M9 792 L9 765" class="st1"/>
		</g>
		<g id="shape31-99" v:mID="31" v:groupContext="shape" v:layerMember="1" transform="translate(264.375,-432)">
			<title>Dynamic connector.31</title>
			<path d="M9 792 L9 765" class="st1"/>
		</g>
		<g id="group36-102" transform="translate(186.75,-459)" v:mID="36" v:groupContext="group">
			<title>Sheet.36</title>
			<g id="shape33-103" v:mID="33" v:groupContext="shape">
				<title>Rectangle.33</title>
				<desc>High HF Vapor Alarm Alerts Operator</desc>
				<v:userDefs>
					<v:ud v:nameU="visVersion" v:val="VT0(15):26"/>
				</v:userDefs>
				<v:textBlock v:margins="rect(4,4,4,4)"/>
				<v:textRect cx="86.625" cy="783" width="173.25" height="18"/>
				<rect x="0" y="774" width="173.25" height="18" class="st2"/>
				<text x="8.73" y="786" class="st4" v:langID="1033"><v:paragraph v:horizAlign="1"/><v:tabList/>High HF Vapor Alarm Alerts Operator</text>			</g>
			<g id="shape34-106" v:mID="34" v:groupContext="shape" transform="translate(0,-18)">
				<title>Rectangle.34</title>
				<desc>No</desc>
				<v:userDefs>
					<v:ud v:nameU="visVersion" v:val="VT0(15):26"/>
				</v:userDefs>
				<v:textBlock v:margins="rect(4,4,4,4)"/>
				<v:textRect cx="43.3125" cy="783" width="86.63" height="18"/>
				<rect x="0" y="774" width="86.625" height="18" class="st2"/>
				<text x="37.2" y="786" class="st3" v:langID="1033"><v:paragraph v:horizAlign="1"/><v:tabList/>No</text>			</g>
			<g id="shape35-109" v:mID="35" v:groupContext="shape" transform="translate(86.625,-18)">
				<title>Rectangle.35</title>
				<desc>Yes</desc>
				<v:userDefs>
					<v:ud v:nameU="visVersion" v:val="VT0(15):26"/>
				</v:userDefs>
				<v:textBlock v:margins="rect(4,4,4,4)"/>
				<v:textRect cx="43.3125" cy="783" width="86.63" height="18"/>
				<rect x="0" y="774" width="86.625" height="18" class="st2"/>
				<text x="35.54" y="786" class="st3" v:langID="1033"><v:paragraph v:horizAlign="1"/><v:tabList/>Yes</text>			</g>
		</g>
		<g id="group37-112" transform="translate(75.375,-522)" v:mID="37" v:groupContext="group">
			<title>Sheet.37</title>
			<g id="shape38-113" v:mID="38" v:groupContext="shape">
				<title>Rectangle.33</title>
				<desc>Automatic Shutdown System</desc>
				<v:userDefs>
					<v:ud v:nameU="visVersion" v:val="VT0(15):26"/>
				</v:userDefs>
				<v:textBlock v:margins="rect(4,4,4,4)"/>
				<v:textRect cx="86.625" cy="783" width="173.25" height="18"/>
				<rect x="0" y="774" width="173.25" height="18" class="st2"/>
				<text x="28.01" y="786" class="st4" v:langID="1033"><v:paragraph v:horizAlign="1"/><v:tabList/>Automatic Shutdown System  </text>			</g>
			<g id="shape39-116" v:mID="39" v:groupContext="shape" transform="translate(0,-18)">
				<title>Rectangle.34</title>
				<desc>No</desc>
				<v:userDefs>
					<v:ud v:nameU="visVersion" v:val="VT0(15):26"/>
				</v:userDefs>
				<v:textBlock v:margins="rect(4,4,4,4)"/>
				<v:textRect cx="43.3125" cy="783" width="86.63" height="18"/>
				<rect x="0" y="774" width="86.625" height="18" class="st2"/>
				<text x="37.2" y="786" class="st3" v:langID="1033"><v:paragraph v:horizAlign="1"/><v:tabList/>No</text>			</g>
			<g id="shape40-119" v:mID="40" v:groupContext="shape" transform="translate(86.625,-18)">
				<title>Rectangle.35</title>
				<desc>Yes</desc>
				<v:userDefs>
					<v:ud v:nameU="visVersion" v:val="VT0(15):26"/>
				</v:userDefs>
				<v:textBlock v:margins="rect(4,4,4,4)"/>
				<v:textRect cx="43.3125" cy="783" width="86.63" height="18"/>
				<rect x="0" y="774" width="86.625" height="18" class="st2"/>
				<text x="35.54" y="786" class="st3" v:langID="1033"><v:paragraph v:horizAlign="1"/><v:tabList/>Yes</text>			</g>
		</g>
		<g id="shape42-122" v:mID="42" v:groupContext="shape" v:layerMember="1" transform="translate(162,-522)">
			<title>Dynamic connector.42</title>
			<path d="M0 792 L0 805.5 L68.06 805.5 L68.06 819" class="st1"/>
		</g>
		<g id="group61-125" transform="translate(170.25,-594)" v:mID="61" v:groupContext="group">
			<title>Sheet.61</title>
			<g id="shape54-126" v:mID="54" v:groupContext="shape" transform="translate(10.9858,-2.10137E-05)">
				<title>Rectangle.54</title>
				<desc>Safe Controlled Automatic Shutdown</desc>
				<v:userDefs>
					<v:ud v:nameU="visVersion" v:val="VT0(15):26"/>
				</v:userDefs>
				<v:textBlock v:margins="rect(4,4,4,4)"/>
				<v:textRect cx="36.0961" cy="774" width="72.2" height="36"/>
				<rect x="0" y="756" width="72.1922" height="36" class="st9"/>
				<text x="4.57" y="765" class="st4" v:langID="1033"><v:paragraph v:horizAlign="1"/><v:tabList/>Safe Controlled <tspan
							x="14.99" dy="1.2em" class="st5">Automatic </tspan><tspan x="15.82" dy="1.2em" class="st5">Shutdown </tspan> </text>			</g>
			<g id="shape50-131" v:mID="50" v:groupContext="shape" transform="translate(-566.413,338.905) rotate(-55.1039)">
				<title>Sheet.50</title>
				<path d="M0 792 L19.79 792" class="st1"/>
			</g>
			<g id="shape51-134" v:mID="51" v:groupContext="shape"
					transform="translate(-604.079,1149.63) rotate(60.198) scale(1,-1)">
				<title>Sheet.51</title>
				<path d="M0 792 L22.78 792" class="st1"/>
			</g>
			<g id="shape55-137" v:mID="55" v:groupContext="shape" transform="translate(83.1779,1548) rotate(180)">
				<title>Sheet.55</title>
				<path d="M0 792 L72.19 792" class="st1"/>
			</g>
			<g id="shape58-140" v:mID="58" v:groupContext="shape" transform="translate(83.1779,1584) rotate(180)">
				<title>Sheet.58</title>
				<path d="M0 792 L72.19 792" class="st1"/>
			</g>
			<g id="shape59-143" v:mID="59" v:groupContext="shape"
					transform="translate(660.913,338.594) rotate(55.1039) scale(-1,1)">
				<title>Sheet.59</title>
				<path d="M0 792 L19.79 792" class="st1"/>
			</g>
			<g id="shape60-146" v:mID="60" v:groupContext="shape" transform="translate(700.653,1145.39) rotate(119.449)">
				<title>Sheet.60</title>
				<path d="M0 792 L22.34 792" class="st1"/>
			</g>
		</g>
		<g id="group62-149" transform="translate(60.75,-594)" v:mID="62" v:groupContext="group">
			<title>Sheet.62</title>
			<g id="shape63-150" v:mID="63" v:groupContext="shape" transform="translate(10.9858,-2.10137E-05)">
				<title>Rectangle.54</title>
				<desc>Unsafe HF Vapor Cloud Formation</desc>
				<v:userDefs>
					<v:ud v:nameU="visVersion" v:val="VT0(15):26"/>
				</v:userDefs>
				<v:textBlock v:margins="rect(4,4,4,4)"/>
				<v:textRect cx="36.0961" cy="774" width="72.2" height="36"/>
				<rect x="0" y="756" width="72.1922" height="36" class="st9"/>
				<text x="14.29" y="765" class="st4" v:langID="1033"><v:paragraph v:horizAlign="1"/><v:tabList/>Unsafe HF <tspan
							x="10.13" dy="1.2em" class="st5">Vapor Cloud </tspan><tspan x="15.26" dy="1.2em" class="st5">Formation </tspan> </text>			</g>
			<g id="shape64-155" v:mID="64" v:groupContext="shape" transform="translate(-566.413,338.905) rotate(-55.1039)">
				<title>Sheet.64</title>
				<path d="M0 792 L19.79 792" class="st1"/>
			</g>
			<g id="shape65-158" v:mID="65" v:groupContext="shape"
					transform="translate(-604.079,1149.63) rotate(60.198) scale(1,-1)">
				<title>Sheet.65</title>
				<path d="M0 792 L22.78 792" class="st1"/>
			</g>
			<g id="shape66-161" v:mID="66" v:groupContext="shape" transform="translate(83.1779,1548) rotate(180)">
				<title>Sheet.66</title>
				<path d="M0 792 L72.19 792" class="st1"/>
			</g>
			<g id="shape67-164" v:mID="67" v:groupContext="shape" transform="translate(83.1779,1584) rotate(180)">
				<title>Sheet.67</title>
				<path d="M0 792 L72.19 792" class="st1"/>
			</g>
			<g id="shape68-167" v:mID="68" v:groupContext="shape"
					transform="translate(660.913,338.594) rotate(55.1039) scale(-1,1)">
				<title>Sheet.68</title>
				<path d="M0 792 L19.79 792" class="st1"/>
			</g>
			<g id="shape69-170" v:mID="69" v:groupContext="shape" transform="translate(700.653,1145.39) rotate(119.449)">
				<title>Sheet.69</title>
				<path d="M0 792 L22.34 792" class="st1"/>
			</g>
		</g>
		<g id="shape70-173" v:mID="70" v:groupContext="shape" v:layerMember="1" transform="translate(202.322,-558)">
			<title>Dynamic connector.70</title>
			<path d="M2.99 792 L2.99 778.5 L15.01 778.5 L15.01 761.72" class="st6"/>
		</g>
		<g id="shape71-178" v:mID="71" v:groupContext="shape" v:layerMember="1" transform="translate(122.26,-558)">
			<title>Dynamic connector.71</title>
			<path d="M-3.57 792 L-3.57 778.5 L-14.43 778.5 L-14.43 761.72" class="st6"/>
		</g>
		<g id="shape72-183" v:mID="72" v:groupContext="shape" v:layerMember="1" transform="translate(408.375,-522)">
			<title>Dynamic connector.72</title>
			<path d="M0 792 L0 805.5 L-91.69 805.5 L-91.69 819" class="st1"/>
		</g>
		<g id="group73-186" transform="translate(321.75,-522)" v:mID="73" v:groupContext="group">
			<title>Sheet.73</title>
			<g id="shape74-187" v:mID="74" v:groupContext="shape">
				<title>Rectangle.33</title>
				<desc>Operator Is Able To Contain HF Release</desc>
				<v:userDefs>
					<v:ud v:nameU="visVersion" v:val="VT0(15):26"/>
				</v:userDefs>
				<v:textBlock v:margins="rect(4,4,4,4)"/>
				<v:textRect cx="86.625" cy="783" width="173.25" height="18"/>
				<rect x="0" y="774" width="173.25" height="18" class="st2"/>
				<text x="4.7" y="786" class="st4" v:langID="1033"><v:paragraph v:horizAlign="1"/><v:tabList/>Operator Is Able To Contain HF Release    </text>			</g>
			<g id="shape75-190" v:mID="75" v:groupContext="shape" transform="translate(0,-18)">
				<title>Rectangle.34</title>
				<desc>No</desc>
				<v:userDefs>
					<v:ud v:nameU="visVersion" v:val="VT0(15):26"/>
				</v:userDefs>
				<v:textBlock v:margins="rect(4,4,4,4)"/>
				<v:textRect cx="43.3125" cy="783" width="86.63" height="18"/>
				<rect x="0" y="774" width="86.625" height="18" class="st2"/>
				<text x="37.2" y="786" class="st3" v:langID="1033"><v:paragraph v:horizAlign="1"/><v:tabList/>No</text>			</g>
			<g id="shape76-193" v:mID="76" v:groupContext="shape" transform="translate(86.625,-18)">
				<title>Rectangle.35</title>
				<desc>Yes</desc>
				<v:userDefs>
					<v:ud v:nameU="visVersion" v:val="VT0(15):26"/>
				</v:userDefs>
				<v:textBlock v:margins="rect(4,4,4,4)"/>
				<v:textRect cx="43.3125" cy="783" width="86.63" height="18"/>
				<rect x="0" y="774" width="86.625" height="18" class="st2"/>
				<text x="35.54" y="786" class="st3" v:langID="1033"><v:paragraph v:horizAlign="1"/><v:tabList/>Yes</text>			</g>
		</g>
		<g id="group77-196" transform="translate(468,-594)" v:mID="77" v:groupContext="group">
			<title>Sheet.77</title>
			<g id="shape78-197" v:mID="78" v:groupContext="shape" transform="translate(10.9858,-2.10137E-05)">
				<title>Rectangle.54</title>
				<desc>Return to Normal Operation</desc>
				<v:userDefs>
					<v:ud v:nameU="visVersion" v:val="VT0(15):26"/>
				</v:userDefs>
				<v:textBlock v:margins="rect(4,4,4,4)"/>
				<v:textRect cx="36.0961" cy="774" width="72.2" height="36"/>
				<rect x="0" y="756" width="72.1922" height="36" class="st9"/>
				<text x="17.35" y="765" class="st4" v:langID="1033"><v:paragraph v:horizAlign="1"/><v:tabList/>Return to <tspan
							x="20.82" dy="1.2em" class="st5">Normal </tspan><tspan x="16.1" dy="1.2em" class="st5">Operation </tspan> </text>			</g>
			<g id="shape79-202" v:mID="79" v:groupContext="shape" transform="translate(-566.413,338.905) rotate(-55.1039)">
				<title>Sheet.79</title>
				<path d="M0 792 L19.79 792" class="st1"/>
			</g>
			<g id="shape80-205" v:mID="80" v:groupContext="shape"
					transform="translate(-604.079,1149.63) rotate(60.198) scale(1,-1)">
				<title>Sheet.80</title>
				<path d="M0 792 L22.78 792" class="st1"/>
			</g>
			<g id="shape81-208" v:mID="81" v:groupContext="shape" transform="translate(83.1779,1548) rotate(180)">
				<title>Sheet.81</title>
				<path d="M0 792 L72.19 792" class="st1"/>
			</g>
			<g id="shape82-211" v:mID="82" v:groupContext="shape" transform="translate(83.1779,1584) rotate(180)">
				<title>Sheet.82</title>
				<path d="M0 792 L72.19 792" class="st1"/>
			</g>
			<g id="shape83-214" v:mID="83" v:groupContext="shape"
					transform="translate(660.913,338.594) rotate(55.1039) scale(-1,1)">
				<title>Sheet.83</title>
				<path d="M0 792 L19.79 792" class="st1"/>
			</g>
			<g id="shape84-217" v:mID="84" v:groupContext="shape" transform="translate(700.653,1145.39) rotate(119.449)">
				<title>Sheet.84</title>
				<path d="M0 792 L22.34 792" class="st1"/>
			</g>
		</g>
		<g id="shape85-220" v:mID="85" v:groupContext="shape" v:layerMember="1" transform="translate(451.688,-558)">
			<title>Dynamic connector.85</title>
			<path d="M0 792 L0 775.12 L63.39 775.12 L63.39 761.72" class="st6"/>
		</g>
		<g id="group104-225" transform="translate(279.75,-594)" v:mID="104" v:groupContext="group">
			<title>Sheet.104</title>
			<g id="shape105-226" v:mID="105" v:groupContext="shape">
				<title>Rectangle.33</title>
				<desc>Automatic Shutdown System</desc>
				<v:userDefs>
					<v:ud v:nameU="visVersion" v:val="VT0(15):26"/>
				</v:userDefs>
				<v:textBlock v:margins="rect(4,4,4,4)"/>
				<v:textRect cx="86.625" cy="783" width="173.25" height="18"/>
				<rect x="0" y="774" width="173.25" height="18" class="st2"/>
				<text x="28.01" y="786" class="st4" v:langID="1033"><v:paragraph v:horizAlign="1"/><v:tabList/>Automatic Shutdown System  </text>			</g>
			<g id="shape106-229" v:mID="106" v:groupContext="shape" transform="translate(0,-18)">
				<title>Rectangle.34</title>
				<desc>No</desc>
				<v:userDefs>
					<v:ud v:nameU="visVersion" v:val="VT0(15):26"/>
				</v:userDefs>
				<v:textBlock v:margins="rect(4,4,4,4)"/>
				<v:textRect cx="43.3125" cy="783" width="86.63" height="18"/>
				<rect x="0" y="774" width="86.625" height="18" class="st2"/>
				<text x="37.2" y="786" class="st3" v:langID="1033"><v:paragraph v:horizAlign="1"/><v:tabList/>No</text>			</g>
			<g id="shape107-232" v:mID="107" v:groupContext="shape" transform="translate(86.625,-18)">
				<title>Rectangle.35</title>
				<desc>Yes</desc>
				<v:userDefs>
					<v:ud v:nameU="visVersion" v:val="VT0(15):26"/>
				</v:userDefs>
				<v:textBlock v:margins="rect(4,4,4,4)"/>
				<v:textRect cx="43.3125" cy="783" width="86.63" height="18"/>
				<rect x="0" y="774" width="86.625" height="18" class="st2"/>
				<text x="35.54" y="786" class="st3" v:langID="1033"><v:paragraph v:horizAlign="1"/><v:tabList/>Yes</text>			</g>
		</g>
		<g id="shape108-235" v:mID="108" v:groupContext="shape" v:layerMember="1" transform="translate(356.063,-558)">
			<title>Dynamic connector.108</title>
			<path d="M9 792 L9 757.08" class="st1"/>
		</g>
		<g id="group127-238" transform="translate(371.25,-657)" v:mID="127" v:groupContext="group">
			<title>Sheet.127</title>
			<g id="shape128-239" v:mID="128" v:groupContext="shape" transform="translate(10.9858,-2.10137E-05)">
				<title>Rectangle.54</title>
				<desc>Safe Controlled Automatic Shutdown</desc>
				<v:userDefs>
					<v:ud v:nameU="visVersion" v:val="VT0(15):26"/>
				</v:userDefs>
				<v:textBlock v:margins="rect(4,4,4,4)"/>
				<v:textRect cx="36.0961" cy="774" width="72.2" height="36"/>
				<rect x="0" y="756" width="72.1922" height="36" class="st9"/>
				<text x="4.57" y="765" class="st4" v:langID="1033"><v:paragraph v:horizAlign="1"/><v:tabList/>Safe Controlled <tspan
							x="14.99" dy="1.2em" class="st5">Automatic </tspan><tspan x="15.82" dy="1.2em" class="st5">Shutdown </tspan> </text>			</g>
			<g id="shape129-244" v:mID="129" v:groupContext="shape" transform="translate(-566.413,338.905) rotate(-55.1039)">
				<title>Sheet.129</title>
				<path d="M0 792 L19.79 792" class="st1"/>
			</g>
			<g id="shape130-247" v:mID="130" v:groupContext="shape"
					transform="translate(-604.079,1149.63) rotate(60.198) scale(1,-1)">
				<title>Sheet.130</title>
				<path d="M0 792 L22.78 792" class="st1"/>
			</g>
			<g id="shape131-250" v:mID="131" v:groupContext="shape" transform="translate(83.1779,1548) rotate(180)">
				<title>Sheet.131</title>
				<path d="M0 792 L72.19 792" class="st1"/>
			</g>
			<g id="shape132-253" v:mID="132" v:groupContext="shape" transform="translate(83.1779,1584) rotate(180)">
				<title>Sheet.132</title>
				<path d="M0 792 L72.19 792" class="st1"/>
			</g>
			<g id="shape133-256" v:mID="133" v:groupContext="shape"
					transform="translate(660.913,338.594) rotate(55.1039) scale(-1,1)">
				<title>Sheet.133</title>
				<path d="M0 792 L19.79 792" class="st1"/>
			</g>
			<g id="shape134-259" v:mID="134" v:groupContext="shape" transform="translate(700.653,1145.39) rotate(119.449)">
				<title>Sheet.134</title>
				<path d="M0 792 L22.34 792" class="st1"/>
			</g>
		</g>
		<g id="group135-262" transform="translate(267.75,-657)" v:mID="135" v:groupContext="group">
			<title>Sheet.135</title>
			<g id="shape136-263" v:mID="136" v:groupContext="shape" transform="translate(10.9858,-2.10137E-05)">
				<title>Rectangle.54</title>
				<desc>Unsafe HF Vapor Cloud Formation</desc>
				<v:userDefs>
					<v:ud v:nameU="visVersion" v:val="VT0(15):26"/>
				</v:userDefs>
				<v:textBlock v:margins="rect(4,4,4,4)"/>
				<v:textRect cx="36.0961" cy="774" width="72.2" height="36"/>
				<rect x="0" y="756" width="72.1922" height="36" class="st9"/>
				<text x="14.29" y="765" class="st4" v:langID="1033"><v:paragraph v:horizAlign="1"/><v:tabList/>Unsafe HF <tspan
							x="10.13" dy="1.2em" class="st5">Vapor Cloud </tspan><tspan x="15.26" dy="1.2em" class="st5">Formation </tspan> </text>			</g>
			<g id="shape137-268" v:mID="137" v:groupContext="shape" transform="translate(-566.413,338.905) rotate(-55.1039)">
				<title>Sheet.137</title>
				<path d="M0 792 L19.79 792" class="st1"/>
			</g>
			<g id="shape138-271" v:mID="138" v:groupContext="shape"
					transform="translate(-604.079,1149.63) rotate(60.198) scale(1,-1)">
				<title>Sheet.138</title>
				<path d="M0 792 L22.78 792" class="st1"/>
			</g>
			<g id="shape139-274" v:mID="139" v:groupContext="shape" transform="translate(83.1779,1548) rotate(180)">
				<title>Sheet.139</title>
				<path d="M0 792 L72.19 792" class="st1"/>
			</g>
			<g id="shape140-277" v:mID="140" v:groupContext="shape" transform="translate(83.1779,1584) rotate(180)">
				<title>Sheet.140</title>
				<path d="M0 792 L72.19 792" class="st1"/>
			</g>
			<g id="shape141-280" v:mID="141" v:groupContext="shape"
					transform="translate(660.913,338.594) rotate(55.1039) scale(-1,1)">
				<title>Sheet.141</title>
				<path d="M0 792 L19.79 792" class="st1"/>
			</g>
			<g id="shape142-283" v:mID="142" v:groupContext="shape" transform="translate(700.653,1145.39) rotate(119.449)">
				<title>Sheet.142</title>
				<path d="M0 792 L22.34 792" class="st1"/>
			</g>
		</g>
		<g id="shape143-286" v:mID="143" v:groupContext="shape" v:layerMember="1" transform="translate(405.01,-630)">
			<title>Dynamic connector.143</title>
			<path d="M4.68 792 L4.68 778.5 L13.32 778.5 L13.32 770.72" class="st6"/>
		</g>
		<g id="shape144-291" v:mID="144" v:groupContext="shape" v:layerMember="1" transform="translate(327.947,-630)">
			<title>Dynamic connector.144</title>
			<path d="M-4.88 792 L-4.88 778.5 L-13.12 778.5 L-13.12 770.72" class="st6"/>
		</g>
		<g id="shape1000-296" v:mID="1000" v:groupContext="shape" transform="translate(45,-45)">
			<title>Rectangle.1000</title>
			<v:userDefs>
				<v:ud v:nameU="visVersion" v:val="VT0(15):26"/>
			</v:userDefs>
			<path d="M0 792 L519.75 792 L519.75 396 L0 396 L0 792 Z" class="st10"/>
		</g>
		<g id="shape1001-298" v:mID="1001" v:groupContext="shape" transform="translate(45,-409.5)">
			<title>Sheet.1001</title>
			<desc>Fault Tree Analysis</desc>
			<v:textBlock v:margins="rect(4,4,4,4)"/>
			<v:textRect cx="40.5" cy="778.5" width="81" height="27"/>
			<rect x="0" y="765" width="81" height="27" class="st11"/>
			<text x="14" y="774.9" class="st12" v:langID="1033"><v:paragraph v:horizAlign="1"/><v:tabList/>Fault Tree <tspan
						x="19.49" dy="1.2em" class="st5">Analysis</tspan></text>		</g>
		<g id="shape1002-302" v:mID="1002" v:groupContext="shape" transform="translate(45,-441)">
			<title>Rectangle.1002</title>
			<v:userDefs>
				<v:ud v:nameU="visVersion" v:val="VT0(15):26"/>
			</v:userDefs>
			<path d="M0 792 L519.75 792 L519.75 531 L0 531 L0 792 Z" class="st10"/>
		</g>
		<g id="shape1003-304" v:mID="1003" v:groupContext="shape" transform="translate(45,-445.5)">
			<title>Sheet.1003</title>
			<desc>Event Tree Analysis</desc>
			<v:textBlock v:margins="rect(4,4,4,4)"/>
			<v:textRect cx="40.5" cy="778.5" width="81" height="27"/>
			<rect x="0" y="765" width="81" height="27" class="st11"/>
			<text x="13.34" y="774.9" class="st12" v:langID="1033"><v:paragraph v:horizAlign="1"/><v:tabList/>Event Tree <tspan
						x="19.49" dy="1.2em" class="st5">Analysis</tspan></text>		</g>
	</g>
</svg>
